<svg
        xmlns="http://www.w3.org/2000/svg"
        viewBox="0 0 500 500"
>
    <polygon
            style="fill:#F4DABB;"
            points="510.195 67.555 344.774 67.555 344.774 102.443 266.816 38.425 344.774 -25.594 344.774 9.294 510.195 9.294"
    ></polygon>
    <g transform="matrix(1, 0, 0, 1, 12.028343, -172.806625)">
        <path
                style="fill:#A72328;"
                d="M332.748,289.083c-3.143,0-6.257-1.071-8.781-3.143l-77.957-64.018
		c-3.2-2.627-5.055-6.55-5.055-10.69s1.855-8.063,5.055-10.69l77.957-64.018c4.135-3.396,9.856-4.102,14.692-1.816
		c4.836,2.287,7.921,7.156,7.921,12.507v21.053h151.588c7.64,0,13.833,6.193,13.833,13.833v58.263
		c0,7.64-6.193,13.833-13.833,13.833H346.579v21.053c0,5.349-3.083,10.22-7.921,12.507
		C336.774,288.646,334.756,289.083,332.748,289.083z M276.585,211.232l42.327,34.758v-5.627c0-7.64,6.193-13.833,13.833-13.833
		h151.588v-30.596H332.746c-7.64,0-13.833-6.193-13.833-13.833v-5.626L276.585,211.232z"
        ></path>
        <path
                style="fill:#A72328;"
                d="M188.615,235.175H61.926c-7.64,0-13.833-6.193-13.833-13.833s6.193-13.833,13.833-13.833h126.689
		c7.64,0,13.833,6.193,13.833,13.833S196.255,235.175,188.615,235.175z"
        ></path>
    </g>
    <circle
            style="fill:#F4DABB;"
            cx="396.372"
            cy="194.439"
            r="47.061"
    ></circle>
    <path
            style="fill:#A72328;"
            d="M 396.373 255.328 C 362.798 255.328 335.483 228.013 335.483 194.438 C 335.483 160.863 362.798 133.548 396.373 133.548 C 429.948 133.548 457.263 160.863 457.263 194.438 C 457.263 228.013 429.948 255.328 396.373 255.328 Z M 396.373 161.213 C 378.054 161.213 363.15 176.117 363.15 194.436 C 363.15 212.755 378.054 227.659 396.373 227.659 C 414.692 227.659 429.596 212.755 429.596 194.436 C 429.597 176.117 414.693 161.213 396.373 161.213 Z"
    ></path>
    <circle
            style="fill:#F4DABB;"
            cx="148.839"
            cy="194.439"
            r="47.061"
    ></circle>
    <g transform="matrix(1, 0, 0, 1, 12.028343, -172.806625)">
        <path
                style="fill:#A72328;"
                d="M136.806,428.135c-33.575,0-60.89-27.315-60.89-60.89s27.315-60.89,60.89-60.89
		s60.89,27.315,60.89,60.89S170.38,428.135,136.806,428.135z M136.806,334.02c-18.319,0-33.223,14.904-33.223,33.223
		c0,18.319,14.904,33.223,33.223,33.223s33.223-14.904,33.223-33.223C170.029,348.924,155.125,334.02,136.806,334.02z"
        ></path>
        <path
                style="fill:#A72328;"
                d="M90.233,374.355H37.036C16.614,374.355,0,357.742,0,337.32v-60.225
		c0-10.783,4.656-20.955,12.793-27.999l32.298-31.385l32.301-85.137c0.093-0.245,0.192-0.487,0.299-0.726
		c12.919-28.974,41.764-47.761,73.487-47.863l37.396-0.119c0.015,0,0.029,0,0.044,0c7.619,0,13.808,6.164,13.833,13.789
		c0.025,7.639-6.149,13.853-13.789,13.878l-37.396,0.119c-20.729,0.066-39.589,12.271-48.155,31.125l-33.243,87.62
		c-0.718,1.892-1.843,3.604-3.292,5.013l-34.82,33.836c-0.241,0.234-0.49,0.458-0.746,0.674c-2.125,1.784-3.344,4.399-3.344,7.174
		v60.225c0,5.165,4.203,9.369,9.369,9.369h53.199c7.64,0,13.833,6.193,13.833,13.833C104.068,368.161,97.873,374.355,90.233,374.355
		z"
        ></path>
        <path
                style="fill:#A72328;"
                d="M274.093,374.355h-90.717c-7.64,0-13.833-6.193-13.833-13.833s6.193-13.833,13.833-13.833h90.717
		c7.64,0,13.833,6.193,13.833,13.833S281.733,374.355,274.093,374.355z"
        ></path>
        <path
                style="fill:#A72328;"
                d="M497.842,374.355h-66.925c-7.64,0-13.833-6.193-13.833-13.833s6.193-13.833,13.833-13.833h66.925
		c7.64,0,13.833,6.193,13.833,13.833S505.482,374.355,497.842,374.355z"
        ></path>
        <path
                style="fill:#A72328;"
                d="M497.85,290.76c-0.011,0-0.021,0-0.032,0c-7.64-0.018-13.819-6.225-13.803-13.864l0.318-141.014
		c0-13.411-10.937-24.348-24.38-24.348H205.095l-0.292,162.65c-0.014,7.63-6.204,13.807-13.833,13.808c-0.008,0-0.017,0-0.026,0
		c-7.64-0.014-13.822-6.218-13.808-13.858l0.317-176.459c0.014-7.63,6.203-13.808,13.833-13.808h268.668
		c28.699,0,52.046,23.348,52.046,52.046l-0.318,141.044C511.664,284.586,505.475,290.76,497.85,290.76z"
        ></path>
    </g>
</svg>
